<svg xmlns="http://www.w3.org/2000/svg" xmlns:xlink="http://www.w3.org/1999/xlink" width="500" zoomAndPan="magnify" viewBox="0 0 375 374.999991" height="500" preserveAspectRatio="xMidYMid meet" version="1.2"><defs/><g id="91361aca36"><g style="fill:#ff66c4;fill-opacity:1;"><g transform="translate(182.788172, 340.862898)"><path style="stroke:none" d="M 132.765625 -191.328125 C 132.765625 -199.492188 130.722656 -205.789062 126.640625 -210.21875 C 122.554688 -214.644531 117.90625 -217.820312 112.6875 -219.75 C 107.46875 -221.675781 102.8125 -222.8125 98.71875 -223.15625 C 94.632812 -223.5 92.59375 -223.671875 92.59375 -223.671875 L 51.75 -223.671875 L 51.75 -161.375 L 92.59375 -161.375 C 92.59375 -161.375 94.632812 -161.539062 98.71875 -161.875 C 102.8125 -162.21875 107.46875 -163.296875 112.6875 -165.109375 C 117.90625 -166.921875 122.554688 -169.867188 126.640625 -173.953125 C 130.722656 -178.046875 132.765625 -183.835938 132.765625 -191.328125 Z M 184.859375 -194.390625 C 184.859375 -178.503906 181.171875 -165.90625 173.796875 -156.59375 C 166.421875 -147.289062 157.507812 -140.484375 147.0625 -136.171875 C 157.957031 -132.546875 166.242188 -127.609375 171.921875 -121.359375 C 177.597656 -115.117188 181.625 -108.765625 184 -102.296875 C 186.382812 -95.828125 187.75 -90.378906 188.09375 -85.953125 C 188.4375 -81.535156 188.609375 -79.328125 188.609375 -79.328125 C 188.609375 -64.117188 185.941406 -51.632812 180.609375 -41.875 C 175.273438 -32.113281 168.460938 -24.394531 160.171875 -18.71875 C 151.890625 -13.050781 143.265625 -8.851562 134.296875 -6.125 C 125.335938 -3.40625 117.054688 -1.703125 109.453125 -1.015625 C 101.847656 -0.335938 96.226562 0 92.59375 0 L 52.09375 0 L 52.09375 -49.703125 L 92.59375 -49.703125 C 98.269531 -49.703125 104.507812 -50.4375 111.3125 -51.90625 C 118.125 -53.382812 124.023438 -56.394531 129.015625 -60.9375 C 134.015625 -65.476562 136.515625 -72.0625 136.515625 -80.6875 C 136.515625 -87.039062 135.035156 -92.203125 132.078125 -96.171875 C 129.128906 -100.140625 125.5 -103.144531 121.1875 -105.1875 C 116.882812 -107.238281 112.519531 -108.601562 108.09375 -109.28125 C 103.664062 -109.957031 99.972656 -110.351562 97.015625 -110.46875 C 94.066406 -110.582031 92.59375 -110.640625 92.59375 -110.640625 L 0 -110.640625 L 0 -269.28125 C 0 -271.320312 1.25 -272.34375 3.75 -272.34375 L 92.59375 -272.34375 C 92.59375 -272.34375 94.804688 -272.226562 99.234375 -272 C 103.660156 -271.78125 109.390625 -271.046875 116.421875 -269.796875 C 123.460938 -268.546875 130.894531 -266.390625 138.71875 -263.328125 C 146.550781 -260.265625 153.984375 -255.894531 161.015625 -250.21875 C 168.054688 -244.539062 173.789062 -237.160156 178.21875 -228.078125 C 182.644531 -219.003906 184.859375 -207.773438 184.859375 -194.390625 Z M 184.859375 -194.390625 "/></g></g><g style="fill:#ff66c4;fill-opacity:1;"><g transform="translate(72.48911, 283.525841)"><path style="stroke:none" d="M 129.359375 -50.71875 L 129.359375 0 L 3.75 0 C 1.25 0 0 -1.019531 0 -3.0625 L 0 -269.28125 C 0 -271.320312 1.25 -272.34375 3.75 -272.34375 L 129.359375 -272.34375 L 129.359375 -222.984375 L 52.09375 -222.984375 L 52.09375 -161.375 L 158.984375 -161.375 C 161.484375 -161.375 162.734375 -160.347656 162.734375 -158.296875 L 162.734375 -115.0625 C 162.734375 -113.019531 161.484375 -112 158.984375 -112 L 52.09375 -112 L 52.09375 -50.71875 Z M 129.359375 -50.71875 "/></g></g><path style="fill:none;stroke-width:8;stroke-linecap:butt;stroke-linejoin:miter;stroke:#ff66c4;stroke-opacity:1;stroke-miterlimit:4;" d="M -0.00170675 4.000183 L 306.717063 4.000183 " transform="matrix(0.75,0,0,0.75,15.005186,315.152207)"/><path style="fill:none;stroke-width:8;stroke-linecap:butt;stroke-linejoin:miter;stroke:#ff66c4;stroke-opacity:1;stroke-miterlimit:4;" d="M 0.00114556 3.998726 L 380.178268 3.998725 " transform="matrix(0.0000000013084,-0.749661,0.749661,0.0000000013084,13.201531,319.348515)"/><path style="fill:none;stroke-width:8;stroke-linecap:butt;stroke-linejoin:miter;stroke:#ff66c4;stroke-opacity:1;stroke-miterlimit:4;" d="M -0.00174304 3.997577 L 76.653215 3.999912 " transform="matrix(0.749911,0.0115448,-0.0115448,0.749911,15.051365,33.615474)"/></g></svg>